<?xml version="1.0" encoding="utf-8"?>
<!-- Generator: Adobe Illustrator 28.0.0, SVG Export Plug-In . SVG Version: 6.00 Build 0)  -->
<svg version="1.1" id="Layer_1" xmlns="http://www.w3.org/2000/svg" xmlns:xlink="http://www.w3.org/1999/xlink" x="0px" y="0px"
	 viewBox="0 0 32 32" style="enable-background:new 0 0 32 32;" xml:space="preserve">
<style type="text/css">
	.st0{fill:#FEC600;}
</style>
<g>
	<path d="M25.55,5.82c6.81,6.05,5.72,17.08-1.95,21.87c-8.34,5.2-19.75,0.57-21.45-9.23C-0.13,5.31,15.58-3.03,25.55,5.82z"/>
	<path class="st0" d="M25.55,5.82c6.81,6.05,5.72,17.08-1.95,21.87c-8.34,5.2-19.75,0.57-21.45-9.23
		C-0.13,5.31,15.58-3.03,25.55,5.82z M25.71,6.52c-8.99-8.81-24.19-2-23.35,10.57c0.59,8.82,9.89,14.43,18.12,11.64
		C29.88,25.53,32.89,13.55,25.71,6.52z"/>
	<path class="st0" d="M27.17,15.63c-0.47,0.55-1.28,1.21-1.87,1.64c-0.64,0.46-1.45,1-2.18,1.25l1.47-1.12
		c1.57-1.39,2.72-3.25,1.31-5.23l-1.69-2.6c0.02,0.56,0.22,1.15,0.48,1.64c0.42,0.79,1.51,1.75,1.53,2.65
		c0.01,0.78-0.61,1.85-1.12,2.43c-0.06,0.07-0.42,0.47-0.5,0.38c0.37-0.99,0.55-2.06,0.45-3.11c-0.16-1.66-1.43-2.96-1.61-4.6
		c-0.1-0.02-0.09,0.08-0.11,0.15c-0.36,1.15-0.39,2.02-1.27,2.97c-1.25,1.35-3.46,2.34-5.23,2.79c-0.95,0.24-1.27,0.1-2.18-0.17
		c-2.64-0.79-5.01-2.06-5.77-4.88C8.79,9.54,8.84,9.11,8.61,8.95c-0.02,1.1-0.8,2.03-1.2,3.01c-0.65,1.62-0.49,3.05-0.04,4.71
		c-0.93-0.81-1.94-2.23-1.37-3.5c0.5-1.12,1.87-2.11,1.84-3.53l-1.86,2.8c-1.61,2.53,1.05,4.67,2.87,6.07
		c-0.21,0.01-0.38-0.15-0.56-0.25c-1.21-0.68-3.77-2.5-4.2-3.83c-0.57-1.78,1.96-2.96,2.94-4.19c0.96-1.2,0.74-2.08,2.11-3.23
		c3.66-3.07,9.77-3.14,13.51-0.19c0.57,0.45,1.15,0.96,1.46,1.62c0.36,0.76,0.44,1.22,1.01,1.92
		C26.63,12.18,29.45,12.98,27.17,15.63z M19.26,7.14c0.07,0.39-0.05,0.94,0,1.35l-0.48-1.03c-1.13-1.32-3.7-1.48-5.07-0.47
		c-0.49,0.36-0.62,0.79-0.85,1.32c-0.05,0.11,0.07,0.23-0.16,0.18c-0.1-0.98,0.18-1.99,1.01-2.58c0.28-0.2,0.68-0.26,0.92-0.51
		c-0.68,0.04-1.53,0.24-2.08,0.66c-0.98,0.75-0.63,1.78-0.21,2.75c0.73,1.69,2.15,3.2,3.72,4.13c0.83-0.58,1.7-1.24,2.35-2.02
		c0.7-0.84,1.76-2.66,1.69-3.77c-0.07-1.22-1.67-1.69-2.69-1.75c-0.04,0.22,0.07,0.12,0.17,0.17C18.19,5.88,19.12,6.37,19.26,7.14z
		 M10.93,6.48c-0.12-0.11-0.45,0.38-0.5,0.47c-0.53,0.95-0.18,1.68,0.11,2.62C9.86,9.04,9.55,8.1,9.61,7.25
		C9.06,7.72,9.06,8.7,9.16,9.37c0.28,1.93,2.19,2.97,3.73,3.83c0.1-0.18-0.21-0.33-0.3-0.47c-0.18-0.28-0.36-0.66-0.35-1
		c0.89,0.34,1.71,0.93,2.7,1l-1.93-1.43C11.73,10.08,10.03,8.41,10.93,6.48z M21.42,9.65c0.24-0.76,0.6-1.5,0.35-2.32
		c-0.04-0.12-0.5-1-0.66-0.85c0.78,1.64-0.46,3.26-1.58,4.36c-0.72,0.71-1.48,1.19-2.29,1.76c-0.09,0.06-0.19,0-0.14,0.2
		c0.59-0.25,1.21-0.44,1.79-0.72c0.57-0.27,1.4-1.08,0.79,0.25c-0.12,0.26-0.35,0.43-0.42,0.69c2.02-0.84,4.02-2.52,3.61-4.96
		c-0.02-0.12-0.36-1-0.52-0.83C22.52,8.09,22.09,9.11,21.42,9.65z"/>
	<path class="st0" d="M15.99,15.77c1.24,0.44,2.63,0.83,3.49,1.87c0.72,0.86,1.73,3.03,0.12,3.47c-1.89-0.48-3.51-0.76-5.46-0.4
		c-0.83,0.15-2.28,0.94-2.57-0.32c-0.3-1.29,0.92-3.03,2-3.65C13.87,16.56,15.75,15.77,15.99,15.77z M16.09,18.9
		c-0.12,0.03-0.12-0.02-0.19-0.08c-0.17-0.17-0.35-0.55-0.54-0.77c-0.31-0.35-0.97-1.08-1.45-0.99c-0.78,0.15-2.14,1.98-1.99,2.84
		l0.74-1.46l0.86-0.69c0.17-0.03,1.96,1.34,2.53,1.3c0.16-0.01,0.76-0.34,0.96-0.43c0.5-0.25,0.96-0.58,1.45-0.86
		c0.59,0.31,1.14,0.9,1.38,1.53l0.27,0.93c0.25-0.95-1.32-3.31-2.26-3.15c-0.31,0.05-0.85,0.57-1.06,0.82
		C16.54,18.17,16.25,18.55,16.09,18.9z"/>
	<path class="st0" d="M28.67,20.14c-0.82,0.78-1.75,1.56-2.68,2.22c-0.72,0.52-1.51,1.08-2.34,1.4c0.79-0.69,1.72-1.24,2.47-1.97
		c0.59-0.57,1.46-1.5,0.54-2.2c0.25,0.82-0.07,1.15-0.62,1.66c-0.49,0.46-1.2,1-1.74,1.42c-1.82,1.44-3.81,2.89-6.05,3.55
		c1.69-1.48,3.19-3.53,3.01-5.9c-0.04-0.61-0.31-1.08-0.46-1.66c1.04,0.97,1.27,2.37,0.9,3.72c-0.05,0.2-0.56,1.24-0.52,1.3
		c1.34-0.99,3.67-2.65,3.98-4.39c0.13-0.72-0.16-1.6,0.69-1.93C25.79,19.16,27.3,19.59,28.67,20.14z"/>
	<path class="st0" d="M10.85,23.69c-0.9-1.59-1.11-3.72,0.39-5.01c-0.47,1-0.63,1.77-0.44,2.87c0.32,1.9,1.4,3.14,2.72,4.42
		c0.1,0.09,0.22,0.12,0.19,0.27c-2.05-0.68-3.96-1.93-5.67-3.24C7.5,22.58,6.8,22.02,6.3,21.57c-0.53-0.48-1.35-1.11-0.93-1.89
		c-0.56,0.23-0.55,0.76-0.26,1.23c0.68,1.13,2.37,2.07,3.35,2.94c-1.62-0.79-3.18-1.96-4.55-3.12c-0.1-0.08-0.61-0.51-0.54-0.58
		c0.72-0.26,1.63-0.59,2.21-1.12c0.49-0.45,0.44-0.8,0.57-1.4c0.02-0.08-0.05-0.25,0.12-0.19c0.64,0.24,0.43,0.78,0.51,1.26
		c0.33,2.11,1.78,3.4,3.44,4.59C10.29,23.35,10.8,23.73,10.85,23.69z"/>
	<path class="st0" d="M16.64,26.39l1.08-0.42c-0.17,0.28-1.42,1.33-1.66,1.35c-0.27,0.02-1.59-1.07-1.81-1.39l1.04,0.46
		c0.05,0.02,0.06-0.07,0.04-0.11c-0.06-0.13-0.78-1.29-0.89-1.42c-0.31-0.38-1.25-0.79-1.7-1.24c-0.17-0.17-1.04-1.4-0.88-1.55
		c0.39,0.06,0.64-0.28,0.99-0.44c1.78-0.81,4.11-0.93,5.93-0.19c0.34,0.14,0.79,0.51,1.03,0.59c0.16,0.06,0.43-0.13,0.35,0.19
		c-0.13,0.51-0.9,1.44-1.32,1.77c-0.35,0.28-0.89,0.48-1.2,0.81C17.24,25.22,17,25.93,16.64,26.39z M15.54,21.4
		c-0.97,0.09-1.27,0.28-1.22,1.33c0.06,1.33,0.58,2.88,1.72,3.66c1.15-0.88,1.81-2.95,1.59-4.35C17.51,21.27,16.12,21.34,15.54,21.4
		z"/>
	<path class="st0" d="M9.33,12.32c1.24,1.35,3.68,1.97,5.22,2.92l0.08,0.27c-0.26,0.26-2.09-0.75-2.47-0.89
		c-0.38-0.14-1.12-0.37-1.51-0.42c-0.35-0.04-0.78,0.06-1.11-0.05c-0.74-0.25-1.02-2-0.77-2.66L9.33,12.32z"/>
	<path class="st0" d="M23.27,13c-0.05,0.3-0.51,1.1-0.83,1.18c-0.4,0.09-0.89-0.02-1.34,0.06c-0.42,0.07-1.09,0.34-1.5,0.5
		c-0.65,0.25-1.53,0.87-2.23,0.77l-0.05-0.19c1.6-0.98,3.67-1.51,5.1-2.78c0.36-0.32,0.57-0.67,0.85-1.04
		C23.22,11.96,23.34,12.56,23.27,13z"/>
	<path class="st0" d="M22.11,18.6c-0.01-0.89,0.15-2.57,1.12-2.93c0.27-0.1,0.39-0.15,0.43,0.19C23.79,17,23.2,18.17,22.11,18.6z"/>
	<path class="st0" d="M9.92,18.67c-0.77-0.48-1.44-1.07-1.54-2.05c-0.02-0.19-0.06-0.98,0.12-1.04C9.78,15.88,9.91,17.6,9.92,18.67z
		"/>
	<path class="st0" d="M23.81,11.96c0.97,1.01,0.95,2.81,0.35,4.01c-0.2-0.15-0.07-0.46-0.23-0.62c-0.11-0.1-0.38-0.06-0.41-0.19
		l0.29-1.24V11.96z"/>
	<path class="st0" d="M8.22,12.04c-0.14,1.08,0.04,2.14,0.24,3.2l-0.35,0.12l-0.27,0.7c-0.45-1.03-0.56-2.41-0.09-3.45
		C7.78,12.52,8.11,11.9,8.22,12.04z"/>
	<path class="st0" d="M10.93,14.82c0.79,0.16,1.57,0.47,2.28,0.84c0.08,0.04,0.22,0.07,0.19,0.2
		C12.16,16.91,11.02,16.42,10.93,14.82z"/>
	<path class="st0" d="M21,14.82c0.08,0.06,0.09,0.06,0.08,0.16c-0.02,0.63-0.45,1.46-1.17,1.47c-0.24,0-1.23-0.4-1.27-0.59
		c-0.03-0.13,0.11-0.15,0.19-0.2C19.47,15.28,20.29,15.04,21,14.82z"/>
	<path class="st0" d="M9.46,14.97c0.37,0.64,1.06,1.11,1.63,1.57c0.07,0.13,0.84,0.33,0.76,0.47c-0.11,0.21-0.79,0.21-1,0.16
		c-0.62-0.16-1.23-1.61-1.54-2.16L9.46,14.97z"/>
	<path class="st0" d="M22.73,14.97c-0.57,0.93-1.11,2.9-2.55,2.04l1.12-0.73c0.47-0.31,0.78-0.78,1.16-1.16
		C22.54,15.04,22.59,14.94,22.73,14.97z"/>
	<path class="st0" d="M24.58,18.29c-0.06,1.32-0.84,2.63-1.77,3.55c0.3-0.63,0.66-1.23,0.94-1.88c0.18-0.42,0.27-0.95,0.5-1.36
		C24.32,18.48,24.4,18.26,24.58,18.29z"/>
	<path class="st0" d="M7.61,18.37l1.62,3.55c-0.9-0.94-1.7-2.18-1.77-3.51L7.61,18.37z"/>
	<path class="st0" d="M13.73,9.06c0.76-0.8,2.19-1.06,3.23-0.77c0.46,0.12,1.62,0.78,1.6,1.32c-0.03,0.87-1.79,2.15-2.5,2.57
		c-0.77-0.42-2.56-1.68-2.62-2.59C13.42,9.44,13.63,9.16,13.73,9.06z"/>
</g>
</svg>
